<svg xmlns="http://www.w3.org/2000/svg" viewBox="0 0 400 440" fill="none">
  <rect width="400" height="440" fill="#F6F1E8"/>
  <!-- small window -->
  <rect x="60" y="50" width="110" height="130" stroke="#202224" stroke-width="2.5"/>
  <line x1="115" y1="50" x2="115" y2="180" stroke="#202224" stroke-width="1.8"/>
  <line x1="60" y1="115" x2="170" y2="115" stroke="#202224" stroke-width="1.8"/>
  <rect x="62" y="52" width="51" height="61" fill="#E9E0D2"/>
  <rect x="117" y="52" width="51" height="61" fill="#E9E0D2" opacity=".7"/>
  <!-- small bookshelf -->
  <rect x="260" y="70" width="80" height="150" stroke="#202224" stroke-width="2.2"/>
  <line x1="260" y1="120" x2="340" y2="120" stroke="#202224" stroke-width="1.6"/>
  <line x1="260" y1="170" x2="340" y2="170" stroke="#202224" stroke-width="1.6"/>
  <rect x="266" y="80" width="9" height="34" fill="#A8884A"/>
  <rect x="278" y="82" width="9" height="32" fill="#202224"/>
  <rect x="290" y="78" width="9" height="36" fill="#C6A76A"/>
  <rect x="266" y="128" width="9" height="36" fill="#202224"/>
  <rect x="278" y="130" width="9" height="34" fill="#A8884A"/>
  <!-- compact desk + single chair -->
  <line x1="70" y1="300" x2="220" y2="300" stroke="#202224" stroke-width="2.5"/>
  <line x1="82" y1="300" x2="82" y2="350" stroke="#202224" stroke-width="2.5"/>
  <line x1="208" y1="300" x2="208" y2="350" stroke="#202224" stroke-width="2.5"/>
  <rect x="108" y="272" width="46" height="24" fill="#F6F1E8" stroke="#202224" stroke-width="1.8"/>
  <path d="M170 380 q-2 -34 22 -34 q24 0 22 34 z" fill="#C6A76A" opacity=".9" stroke="#202224" stroke-width="1.8"/>
  <path d="M180 346 h24" stroke="#202224" stroke-width="1.5"/>
  <!-- floor -->
  <line x1="0" y1="392" x2="400" y2="392" stroke="#202224" stroke-width="2"/>
  <!-- small potted plant -->
  <path d="M330 350 q-14 -16 0 -30 q14 14 0 30 z" fill="#A8884A"/>
  <path d="M316 350 h28 l-4 24 h-20 z" stroke="#202224" stroke-width="1.8" fill="#F6F1E8"/>
</svg>
